<?xml version="1.0" encoding="UTF-8" standalone="no"?>
<!-- Created with Inkscape (http://www.inkscape.org/) -->

<svg
   xmlns:osb="http://www.openswatchbook.org/uri/2009/osb"
   xmlns:dc="http://purl.org/dc/elements/1.1/"
   xmlns:cc="http://creativecommons.org/ns#"
   xmlns:rdf="http://www.w3.org/1999/02/22-rdf-syntax-ns#"
   xmlns:svg="http://www.w3.org/2000/svg"
   xmlns="http://www.w3.org/2000/svg"
   xmlns:xlink="http://www.w3.org/1999/xlink"
   xmlns:sodipodi="http://sodipodi.sourceforge.net/DTD/sodipodi-0.dtd"
   xmlns:inkscape="http://www.inkscape.org/namespaces/inkscape"
   width="1080"
   height="217"
   viewBox="0 0 285.74999 57.41462"
   version="1.1"
   id="svg1001"
   inkscape:version="0.92.4 (5da689c313, 2019-01-14)"
   sodipodi:docname="phpBanner.svg">
  <defs
     id="defs995">
    <pattern
       inkscape:collect="always"
       xlink:href="#pattern976"
       id="pattern1699"
       patternTransform="matrix(0.26458333,0,0,0.26458333,124.69648,254.89564)" />
    <linearGradient
       id="linearGradient3091"
       osb:paint="solid">
      <stop
         style="stop-color:#ffffff;stop-opacity:1;"
         offset="0"
         id="stop3089" />
    </linearGradient>
    <linearGradient
       inkscape:collect="always"
       id="linearGradient2971">
      <stop
         style="stop-color:#000000;stop-opacity:1;"
         offset="0"
         id="stop2967" />
      <stop
         style="stop-color:#000000;stop-opacity:0;"
         offset="1"
         id="stop2969" />
    </linearGradient>
    <linearGradient
       gradientTransform="matrix(4.5652172,0,0,4.5652172,1775.0925,92.849601)"
       inkscape:collect="always"
       xlink:href="#linearGradient2971"
       id="linearGradient2949-4-5"
       x1="-386.30438"
       y1="31.414131"
       x2="-372.67886"
       y2="31.414131"
       gradientUnits="userSpaceOnUse" />
    <path
       sodipodi:nodetypes="cc"
       inkscape:connector-curvature="0"
       id="path3106-5-9"
       d="m 26.694004,291.76 c 8.150773,2.73191 16.906597,3.97593 28.095786,-0.004"
       style="fill:none;stroke:#000000;stroke-width:0.066;stroke-linecap:butt;stroke-linejoin:miter;stroke-miterlimit:4;stroke-dasharray:none;stroke-opacity:1" />
    <path
       sodipodi:nodetypes="cc"
       inkscape:connector-curvature="0"
       id="path3116-2-6"
       d="m 36.459121,220.48573 c 9.038037,-2.98049 17.823951,-1.27945 25.174513,3.51756"
       style="fill:none;stroke:#000000;stroke-width:0;stroke-linecap:butt;stroke-linejoin:miter;stroke-miterlimit:4;stroke-dasharray:none;stroke-opacity:1" />
    <linearGradient
       inkscape:collect="always"
       xlink:href="#linearGradient2971"
       id="linearGradient965"
       gradientUnits="userSpaceOnUse"
       gradientTransform="matrix(11.783406,0,0,11.783406,4552.7231,-327.5313)"
       x1="-386.30438"
       y1="31.414131"
       x2="-372.67886"
       y2="31.414131" />
    <pattern
       patternUnits="userSpaceOnUse"
       width="153.8048"
       height="92.373843"
       patternTransform="matrix(0.26458333,0,0,0.26458333,124.50749,254.89564)"
       id="pattern976">
      <text
         transform="scale(0.93666093,1.0676222)"
         id="text2501-4-20-6"
         y="85.097084"
         x="-5.8176289"
         style="font-style:normal;font-variant:normal;font-weight:normal;font-stretch:normal;font-size:116.80886078px;line-height:1.25;font-family:Arial;-inkscape-font-specification:Arial;letter-spacing:0px;word-spacing:0px;fill:url(#linearGradient965);fill-opacity:1;stroke:none;stroke-width:2.92022109"
         xml:space="preserve"><tspan
           style="font-style:normal;font-variant:normal;font-weight:normal;font-stretch:normal;font-family:Arial;-inkscape-font-specification:Arial;fill:url(#linearGradient965);fill-opacity:1;stroke-width:2.92022109"
           y="85.097084"
           x="-5.8176289"
           id="tspan2499-8-3-6"
           sodipodi:role="line">CO</tspan></text>
    </pattern>
  </defs>
  <sodipodi:namedview
     id="base"
     pagecolor="#ffffff"
     bordercolor="#666666"
     borderopacity="1.0"
     inkscape:pageopacity="0.0"
     inkscape:pageshadow="2"
     inkscape:zoom="0.24748738"
     inkscape:cx="69.52528"
     inkscape:cy="0.98539364"
     inkscape:document-units="mm"
     inkscape:current-layer="layer1"
     showgrid="false"
     units="px"
     showguides="true"
     inkscape:guide-bbox="true"
     inkscape:window-width="1920"
     inkscape:window-height="1017"
     inkscape:window-x="-8"
     inkscape:window-y="-8"
     inkscape:window-maximized="1">
    <sodipodi:guide
       position="145.14286,122.46429"
       orientation="1,0"
       id="guide1617"
       inkscape:locked="false" />
  </sodipodi:namedview>
  <metadata
     id="metadata998">
    <rdf:RDF>
      <cc:Work
         rdf:about="">
        <dc:format>image/svg+xml</dc:format>
        <dc:type
           rdf:resource="http://purl.org/dc/dcmitype/StillImage" />
        <dc:title />
      </cc:Work>
    </rdf:RDF>
  </metadata>
  <g
     inkscape:label="Layer 1"
     inkscape:groupmode="layer"
     id="layer1"
     transform="translate(0,-239.58477)">
    <rect
       style="fill:#d7f4e3;fill-opacity:1;stroke:none;stroke-width:0.19480304;stroke-linecap:round;stroke-miterlimit:4;stroke-dasharray:none;stroke-opacity:1"
       id="rect1619"
       width="286.88394"
       height="57.190281"
       x="0.083083339"
       y="239.77434"
       inkscape:export-xdpi="96"
       inkscape:export-ydpi="96" />
    <rect
       style="fill:#ffffff;fill-opacity:1;stroke:none;stroke-width:0.19480304;stroke-linecap:round;stroke-miterlimit:4;stroke-dasharray:none;stroke-opacity:1"
       id="rect1619-9"
       width="286.88394"
       height="57.190289"
       x="-286.96701"
       y="239.77434"
       transform="scale(-1,1)"
       inkscape:export-xdpi="96"
       inkscape:export-ydpi="96" />
    <circle
       style="fill:#000000;fill-opacity:1;stroke:none;stroke-width:0.87618846;stroke-linecap:round;stroke-miterlimit:4;stroke-dasharray:none;stroke-opacity:1"
       id="path2750-7-0"
       cx="145.00545"
       cy="268.21902"
       r="27.103516" />
    <path
       style="fill:#ffffff;stroke:#ffffff;stroke-width:0.51441932;stroke-linecap:butt;stroke-linejoin:miter;stroke-miterlimit:4;stroke-dasharray:none;stroke-opacity:1"
       d="m 145.14285,278.82086 c -2.67573,7.23118 -11.43336,11.42946 -17.36835,8.01403 -13.26847,-10.18469 -8.18251,-30.68493 0,-37.49689 7.73396,5.15021 13.91071,-3.98143 17.36838,6.87444 2.31661,-10.82721 12.68636,-2.66403 17.42042,-6.87444 4.05653,3.60034 7.20187,9.39681 7.99493,15.49636 1.09006,8.38416 -1.74027,17.34105 -7.99493,21.95436 -5.88202,3.37057 -15.05624,-0.66285 -17.42045,-7.96786 z"
       id="path2764-5-9"
       inkscape:connector-curvature="0"
       sodipodi:nodetypes="cccccscc" />
    <g
       aria-label="CO"
       transform="scale(0.93625823,1.0680814)"
       style="font-style:normal;font-variant:normal;font-weight:normal;font-stretch:normal;font-size:30.8923893px;line-height:1.25;font-family:Arial;-inkscape-font-specification:Arial;letter-spacing:0px;word-spacing:0px;fill:#536c67;fill-opacity:1;stroke:none;stroke-width:0.77230966"
       id="text2501-3-1">
      <path
         d="m 149.63887,253.38803 2.92633,0.73913 q -0.92013,3.60511 -3.31852,5.50572 -2.3833,1.88552 -5.83757,1.88552 -3.57495,0 -5.8225,-1.44808 -2.23245,-1.46316 -3.40902,-4.22357 -1.16148,-2.7604 -1.16148,-5.92808 0,-3.45428 1.31232,-6.01859 1.32741,-2.57939 3.75596,-3.9068 2.44364,-1.34249 5.36997,-1.34249 3.31852,0 5.58114,1.68943 2.26263,1.68943 3.1526,4.75151 l -2.88108,0.67879 q -0.76929,-2.41347 -2.23246,-3.51461 -1.46316,-1.10114 -3.68054,-1.10114 -2.54922,0 -4.26882,1.22181 -1.70451,1.22182 -2.39838,3.28835 -0.69388,2.05145 -0.69388,4.23866 0,2.82074 0.81455,4.93252 0.82963,2.0967 2.56431,3.13751 1.73468,1.04081 3.75596,1.04081 2.45872,0 4.16323,-1.41791 1.70451,-1.41792 2.30788,-4.20849 z"
         style="font-style:normal;font-variant:normal;font-weight:normal;font-stretch:normal;font-family:Arial;-inkscape-font-specification:Arial;fill:#536c67;stroke-width:0.77230966"
         id="path1701" />
      <path
         d="m 155.29543,250.3712 q 0,-5.50573 2.9565,-8.61307 2.9565,-3.12242 7.63259,-3.12242 3.06209,0 5.52081,1.46316 2.45872,1.46317 3.74088,4.08781 1.29724,2.60957 1.29724,5.92808 0,3.36378 -1.35758,6.01859 -1.35757,2.65482 -3.84646,4.02748 -2.48889,1.35757 -5.36997,1.35757 -3.12242,0 -5.58114,-1.50842 -2.45872,-1.50841 -3.72579,-4.11798 -1.26708,-2.60956 -1.26708,-5.5208 z m 3.01684,0.0453 q 0,3.9973 2.14195,6.30518 2.15704,2.2928 5.40014,2.2928 3.30343,0 5.4303,-2.32297 2.14195,-2.32296 2.14195,-6.59178 0,-2.70007 -0.92013,-4.70626 -0.90505,-2.02128 -2.6699,-3.12243 -1.74977,-1.11622 -3.93697,-1.11622 -3.10734,0 -5.35488,2.14195 -2.23246,2.12687 -2.23246,7.11973 z"
         style="font-style:normal;font-variant:normal;font-weight:normal;font-stretch:normal;font-family:Arial;-inkscape-font-specification:Arial;fill:#536c67;stroke-width:0.77230966"
         id="path1703" />
    </g>
    <path
       style="fill:#536c67;stroke:none;stroke-width:0.82488954px;stroke-linecap:butt;stroke-linejoin:miter;stroke-opacity:1"
       d="m 142.78223,277.23393 0.043,-3.83542 2.40069,-2.2e-4 c 0.7754,1.75788 1.57113,3.29784 2.75508,4.37484 -1.12032,3.31105 -1.86211,5.76979 -2.81223,8.64511 -0.7725,-1.92745 -1.64025,-3.95604 -2.38672,-9.18431 z"
       id="path2582-20-5"
       inkscape:connector-curvature="0"
       sodipodi:nodetypes="ccccccc" />
    <path
       style="fill:url(#pattern1699);stroke:none"
       d="m 124.69648,254.89565 h 40.69419 v 24.44057 h -40.69419 z"
       id="rect980"
       inkscape:connector-curvature="0" />
    <path
       style="fill:#536c67;fill-opacity:1;stroke:none;stroke-width:0.58716547;stroke-linecap:round;stroke-miterlimit:4;stroke-dasharray:none"
       id="path2565-9-6"
       sodipodi:type="arc"
       sodipodi:cx="134.83919"
       sodipodi:cy="266.97662"
       sodipodi:rx="1.5466679"
       sodipodi:ry="6.1866717"
       sodipodi:start="0"
       sodipodi:end="6.1265834"
       d="m 136.38586,266.97662 a 1.5466679,6.1866717 0 0 1 -1.48614,6.18193 1.5466679,6.1866717 0 0 1 -1.60246,-5.698 1.5466679,6.1866717 0 0 1 1.36069,-6.62798 1.5466679,6.1866717 0 0 1 1.70898,5.17916 l -1.52774,0.96489 z" />
    <path
       style="fill:#536c67;fill-opacity:1;stroke:none;stroke-width:0.58716547;stroke-linecap:round;stroke-miterlimit:4;stroke-dasharray:none"
       id="path2565-3-6-9"
       sodipodi:type="arc"
       sodipodi:cx="154.35654"
       sodipodi:cy="266.82935"
       sodipodi:rx="1.5466679"
       sodipodi:ry="6.1866717"
       sodipodi:start="0"
       sodipodi:end="6.1265834"
       d="m 155.9032,266.82935 a 1.5466679,6.1866717 0 0 1 -1.48613,6.18193 1.5466679,6.1866717 0 0 1 -1.60246,-5.69801 1.5466679,6.1866717 0 0 1 1.36069,-6.62797 1.5466679,6.1866717 0 0 1 1.70898,5.17916 l -1.52774,0.96489 z" />
    <path
       style="fill:none;stroke:#000000;stroke-width:0.04507293;stroke-linecap:butt;stroke-linejoin:miter;stroke-miterlimit:4;stroke-dasharray:none;stroke-opacity:1"
       d="m 135.54648,293.92888 c 5.56635,1.86569 11.5459,2.71526 19.18726,-0.003"
       id="path955-0"
       inkscape:connector-curvature="0"
       sodipodi:nodetypes="cc" />
    <flowRoot
       transform="matrix(0.26458334,0,0,0.26458334,-2.3336629e-7,239.58477)"
       style="font-style:normal;font-variant:normal;font-weight:normal;font-stretch:normal;font-size:40px;line-height:1.25;font-family:dashboard;-inkscape-font-specification:dashboard;letter-spacing:0px;word-spacing:0px;fill:#000000;fill-opacity:1;stroke:none"
       id="flowRoot934"
       xml:space="preserve"><flowRegion
         id="flowRegion936"><rect
           y="-18.714285"
           x="117.14285"
           height="362.85715"
           width="661.42859"
           id="rect938" /></flowRegion><flowPara
         id="flowPara940"></flowPara></flowRoot>    <text
       id="text944"
       y="233.78284"
       x="195.50819"
       style="font-style:normal;font-variant:normal;font-weight:normal;font-stretch:normal;font-size:10.58333302px;line-height:1.25;font-family:dashboard;-inkscape-font-specification:dashboard;letter-spacing:0px;word-spacing:0px;fill:#000000;fill-opacity:1;stroke:none;stroke-width:0.26458332"
       xml:space="preserve"><tspan
         style="stroke-width:0.26458332"
         y="243.43834"
         x="195.50819"
         id="tspan942"
         sodipodi:role="line"></tspan></text>
  </g>
</svg>
